HIERARCHY
ROOT Hips
{
	OFFSET -3.958830 18.904000 13.208200
	CHANNELS 6 Xposition Yposition Zposition Zrotation Yrotation Xrotation 
	JOINT LHipJoint
	{
		OFFSET 0.000000 0.000000 0.000000
		CHANNELS 3 Zrotation Yrotation Xrotation
		JOINT LeftUpLeg
		{
			OFFSET 1.800000 -1.400000 0.085000
			CHANNELS 3 Zrotation Yrotation Xrotation
			JOINT LeftLeg
			{
				OFFSET 2.215000 -6.000000 0.000000
				CHANNELS 3 Zrotation Yrotation Xrotation
				JOINT LeftFoot
				{
					OFFSET 2.500000 -6.900000 0.000000
					CHANNELS 3 Zrotation Yrotation Xrotation
					JOINT LeftToeBase
					{
						OFFSET 0.200000 -0.500000 1.950000
						CHANNELS 3 Zrotation Yrotation Xrotation
						End Site
						{
							OFFSET 0.000000 0.000000 0.000000
						}
					}
				}
			}
		}
	}
	JOINT RHipJoint
	{
		OFFSET 0.000000 0.000000 0.000000
		CHANNELS 3 Zrotation Yrotation Xrotation
		JOINT RightUpLeg
		{
			OFFSET -1.800000 -1.400000 0.085000
			CHANNELS 3 Zrotation Yrotation Xrotation
			JOINT RightLeg
			{
				OFFSET -2.215000 -6.000000 0.000000
				CHANNELS 3 Zrotation Yrotation Xrotation
				JOINT RightFoot
				{
					OFFSET -2.500000 -6.900000 0.000000
					CHANNELS 3 Zrotation Yrotation Xrotation
					JOINT RightToeBase
					{
						OFFSET -0.200000 -0.500000 1.950000
						CHANNELS 3 Zrotation Yrotation Xrotation
						End Site
						{
							OFFSET 0.000000 0.000000 0.000000
						}
					}
				}
			}
		}
	}
	JOINT LowerBack
	{
		OFFSET 0.000000 0.000000 0.000000
		CHANNELS 3 Zrotation Yrotation Xrotation
		JOINT Spine
		{
			OFFSET -0.087000 1.940000 -0.288900
			CHANNELS 3 Zrotation Yrotation Xrotation
			JOINT Spine1
			{
				OFFSET 0.000000 1.950000 0.060000
				CHANNELS 3 Zrotation Yrotation Xrotation
				JOINT Neck
				{
					OFFSET 0.000000 0.000000 0.000000
					CHANNELS 3 Zrotation Yrotation Xrotation
					JOINT Neck1
					{
						OFFSET 0.000000 1.600000 0.340000
						CHANNELS 3 Zrotation Yrotation Xrotation
						JOINT Head
						{
							OFFSET 0.000000 1.667000 -0.240000
							CHANNELS 3 Zrotation Yrotation Xrotation
							End Site
							{
								OFFSET 0.000000 0.000000 0.000000
							}
						}
					}
				}
				JOINT LeftShoulder
				{
					OFFSET 0.000000 0.000000 0.000000
					CHANNELS 3 Zrotation Yrotation Xrotation
					JOINT LeftArm
					{
						OFFSET 2.700000 1.550000 -0.730000
						CHANNELS 3 Zrotation Yrotation Xrotation
						JOINT LeftForeArm
						{
							OFFSET 5.450000 0.000000 0.000000
							CHANNELS 3 Zrotation Yrotation Xrotation
							JOINT LeftHand
							{
								OFFSET 3.450000 0.000000 0.000000
								CHANNELS 3 Zrotation Yrotation Xrotation
								JOINT LeftHandIndex1
								{
									OFFSET 0.750000 0.000000 0.000000
									CHANNELS 3 Zrotation Yrotation Xrotation
									End Site
									{
										OFFSET 0.000000 0.000000 0.000000
									}
								}
							}
						}
					}
				}
				JOINT RightShoulder
				{
					OFFSET 0.000000 0.000000 0.000000
					CHANNELS 3 Zrotation Yrotation Xrotation
					JOINT RightArm
					{
						OFFSET -2.700000 1.550000 -0.730000
						CHANNELS 3 Zrotation Yrotation Xrotation
						JOINT RightForeArm
						{
							OFFSET -5.450000 0.000000 0.000000
							CHANNELS 3 Zrotation Yrotation Xrotation
							JOINT RightHand
							{
								OFFSET -3.450000 0.000000 0.000000
								CHANNELS 3 Zrotation Yrotation Xrotation
								JOINT RightHandIndex1
								{
									OFFSET -0.750000 0.000000 0.000000
									CHANNELS 3 Zrotation Yrotation Xrotation
									End Site
									{
										OFFSET 0.000000 0.000000 0.000000
									}
								}
							}
						}
					}
				}
			}
		}
	}
}
MOTION
Frames: 9
Frame Time: 0.016667
0.392150 17.024560 -1.072980 -4.010792 -2.740250 3.601733 -15.218397 13.883453 3.389358 1.556619 -0.677789 -6.871272 -6.158202 4.171501 4.033502 -0.624433 4.143552 3.672750 0.409750 -0.159440 0.199800 18.089860 -10.463021 3.305215 1.325715 0.203917 -5.724250 6.445683 -4.249781 4.016876 -0.486198 -3.440122 3.511505 -0.064850 0.643940 0.419490 -3.181167 -3.249496 -8.417216 12.419762 -0.936616 16.482623 -4.517879 2.139870 -13.634148 3.496769 -4.964690 -9.344475 -11.701432 4.229166 38.150044 -2.063060 0.409460 -7.892560 -8.112217 -3.286259 -0.042687 27.764479 10.742726 3.845379 3.610000 -3.232347 -1.237127 -3.799257 2.845755 0.877070 0.291360 -0.091500 0.425470 1.431634 10.166461 4.649259 -29.726280 -12.591187 3.253053 1.951130 13.482790 0.944179 1.749696 -1.830288 -0.375250 0.383300 0.022790 -0.222120 
0.390140 17.024440 -1.067690 -3.990163 -2.858029 3.518311 -15.224121 13.908176 3.388356 1.612459 -0.668052 -6.899789 -6.265745 4.236310 4.345928 -0.616174 4.159461 3.661957 0.411860 -0.154460 0.193810 18.078414 -10.472992 3.294123 1.278469 0.226134 -5.810384 6.447325 -4.291522 4.395439 -0.482516 -3.446427 3.506566 -0.065170 0.644720 0.430140 -3.153293 -3.273888 -8.411644 12.223214 -0.890009 16.702054 -4.373690 2.209909 -13.837367 3.496656 -4.928531 -9.252854 -11.605396 4.248414 38.055493 -2.101430 0.464030 -7.703710 -7.966550 -3.225728 -0.169423 28.205751 10.636488 3.924953 3.681219 -3.492380 -1.205786 -3.792246 2.880267 0.867870 0.297300 -0.092570 0.426670 1.316336 10.120604 4.570584 -30.144912 -12.674927 3.399167 1.528151 13.651153 0.937002 1.745691 -1.849092 -0.364370 0.370210 0.023660 -0.217550 
0.387640 17.023390 -1.062870 -3.954372 -2.941104 3.407019 -15.229691 13.936920 3.387321 1.667541 -0.657876 -6.936452 -6.388145 4.315115 4.723779 -0.605663 4.177245 3.650150 0.415200 -0.147910 0.190180 18.065761 -10.485752 3.282273 1.216345 0.248441 -5.894967 6.453344 -4.338794 4.826353 -0.478498 -3.453067 3.502920 -0.064160 0.643260 0.439410 -3.124359 -3.300351 -8.406253 12.007915 -0.842556 16.973090 -4.242963 2.289556 -14.136377 3.485954 -4.852467 -9.134536 -11.460909 4.204864 38.031963 -2.168240 0.478900 -7.491930 -7.906275 -3.215817 -0.361413 28.835431 10.364115 3.981063 3.363221 -3.622561 -1.198026 -3.777055 2.919559 0.857060 0.302620 -0.092430 0.428680 1.310213 10.079301 4.519486 -30.495741 -12.780024 3.535242 0.894432 13.786735 0.912894 1.745675 -1.861330 -0.353020 0.357660 0.021800 -0.213070 
0.386320 17.022380 -1.058730 -3.958489 -3.025553 3.189754 -15.233391 13.977156 3.382593 1.759949 -0.630741 -6.903929 -6.442601 4.402623 5.173109 -0.596453 4.200334 3.637788 0.414560 -0.144290 0.182660 18.053742 -10.498206 3.270296 1.153192 0.261599 -5.918122 6.486736 -4.408150 5.337702 -0.477643 -3.461408 3.500819 -0.065920 0.643220 0.443940 -3.099294 -3.344906 -8.398619 11.900237 -0.836929 17.363273 -4.150447 2.365171 -14.407250 3.466404 -4.863791 -9.040228 -11.533489 4.198959 38.159716 -2.123070 0.401700 -7.488230 -7.923927 -3.243428 -0.512868 29.347346 10.205244 4.032631 3.021098 -3.766302 -1.190373 -3.760613 2.945957 0.852800 0.303810 -0.090750 0.429390 1.394890 10.141521 4.466960 -30.973488 -12.929650 3.678271 0.349114 13.917955 0.905773 1.744983 -1.864068 -0.345100 0.353810 0.024290 -0.208560 
0.385010 17.021890 -1.055720 -3.927467 -3.061367 2.900748 -15.235161 14.019318 3.376982 1.839004 -0.601017 -6.871964 -6.516340 4.509646 5.723677 -0.582570 4.225275 3.622972 0.412680 -0.141460 0.176850 18.042447 -10.518564 3.253139 1.047796 0.269318 -5.928146 6.511073 -4.500605 5.998933 -0.480003 -3.471081 3.497113 -0.069930 0.637970 0.449150 -3.078860 -3.383760 -8.387569 11.759823 -0.855688 17.774998 -4.088625 2.398459 -14.429832 3.460764 -4.848909 -9.069094 -11.597983 4.148889 38.371720 -2.082510 0.307580 -7.618940 -7.967710 -3.386730 -0.546399 29.727298 10.242020 4.062102 2.708182 -3.830560 -1.186346 -3.746731 2.959835 0.851860 0.300420 -0.081920 0.429910 1.486738 10.262777 4.551373 -31.173790 -13.246656 3.731732 -0.458204 13.865735 0.872852 1.754734 -1.844197 -0.335670 0.349670 0.024680 -0.203550 
0.384120 17.020970 -1.052810 -3.904359 -3.071363 2.538378 -15.239034 14.066241 3.362353 1.946301 -0.567545 -6.857123 -6.539508 4.638888 6.451145 -0.569932 4.254076 3.609195 0.410720 -0.138700 0.175060 18.028646 -10.541911 3.234783 0.897790 0.274788 -5.903243 6.608272 -4.617990 6.728880 -0.482805 -3.490198 3.494043 -0.074010 0.633050 0.448670 -3.052360 -3.422851 -8.370776 11.573211 -0.852317 18.186613 -3.932578 2.446877 -14.206651 3.474380 -4.811690 -9.088415 -11.607438 4.000085 38.500050 -2.153010 0.188940 -7.808140 -8.243317 -3.640682 -0.509952 30.146870 10.390980 4.088568 2.780286 -3.573841 -1.204405 -3.741114 2.953468 0.850760 0.297090 -0.075250 0.429370 1.767237 10.470938 4.609645 -31.550319 -13.711151 3.807166 -1.281789 13.715709 0.827819 1.763255 -1.822632 -0.329120 0.351030 0.023570 -0.200510 
0.384290 17.017690 -1.051050 -3.937464 -3.106276 2.156437 -15.236556 14.108794 3.340585 2.127549 -0.543521 -6.910795 -6.606785 4.798914 7.325666 -0.548317 4.289785 3.594571 0.411110 -0.133390 0.177160 18.020662 -10.573556 3.214053 0.750133 0.298450 -5.945992 6.776988 -4.766399 7.638650 -0.486635 -3.516562 3.488345 -0.078440 0.627640 0.450520 -3.042527 -3.438924 -8.345403 11.507634 -0.862606 18.578408 -3.834411 2.481655 -13.684828 3.483377 -4.747206 -9.183219 -11.529531 3.764024 38.441558 -2.213680 0.035520 -7.972430 -8.505226 -3.897218 -0.394763 30.329413 10.759405 4.108518 2.950090 -3.362721 -1.208737 -3.740987 2.943303 0.844980 0.294310 -0.066230 0.431330 2.021223 10.635947 4.773377 -31.629514 -14.315017 3.831651 -2.478503 13.489881 0.757526 1.782170 -1.790776 -0.318430 0.349980 0.016260 -0.194570 
0.382760 17.015600 -1.050620 -3.890822 -3.130550 1.716431 -15.242524 14.165660 3.323613 2.332169 -0.524073 -7.020928 -6.764436 5.006676 8.353436 -0.536302 4.348965 3.567575 0.404310 -0.137950 0.175330 18.001890 -10.602793 3.185798 0.562972 0.342972 -6.029751 6.896271 -4.937630 8.745524 -0.490071 -3.544707 3.478469 -0.086840 0.621400 0.449640 -3.005024 -3.486911 -8.322915 11.188233 -0.843536 19.088143 -3.594990 2.541009 -13.180861 3.517439 -4.657117 -9.349253 -11.435506 3.539638 38.461699 -2.331660 -0.071860 -8.319800 -8.787770 -4.154775 -0.250639 30.381033 11.258665 4.148391 3.127513 -3.306744 -1.203330 -3.744108 2.925682 0.850160 0.288050 -0.058080 0.427530 2.288636 10.796380 5.036377 -31.472006 -14.934660 3.780892 -3.987911 13.081183 0.682305 1.802196 -1.736728 -0.315460 0.352390 0.019150 -0.194280 
0.380890 17.012100 -1.050630 -3.859311 -3.161400 1.243085 -15.249442 14.227042 3.307108 2.582115 -0.513620 -7.163679 -6.967302 5.249848 9.497373 -0.532698 4.431558 3.528655 0.394470 -0.147250 0.171880 17.981663 -10.630081 3.154874 0.393326 0.413758 -6.154783 6.997025 -5.126414 10.010695 -0.491074 -3.584681 3.460860 -0.092570 0.614620 0.447310 -2.963864 -3.544575 -8.298474 10.888110 -0.834173 19.712569 -3.395088 2.614921 -12.798014 3.575480 -4.538181 -9.483712 -11.244586 3.335242 38.382461 -2.518250 -0.097460 -8.673460 -9.058660 -4.332276 -0.165904 30.392137 11.657463 4.186652 3.196504 -3.317601 -1.198819 -3.748087 2.910807 0.858790 0.283090 -0.053780 0.419650 2.491210 10.874351 5.292676 -31.132891 -15.436925 3.714589 -5.274550 12.802925 0.634448 1.817592 -1.689736 -0.319350 0.353630 0.026850 -0.198970 
